<svg xmlns="http://www.w3.org/2000/svg" viewBox="0 0 1080 187">
	<style>
		.shp0 { fill: #1c232a } 
		.shp1 { fill: #eed929 } 
		.shp2 {
			fill: none;
			stroke: #28333c;
			stroke-width: 3
		} 
		.shp3 { fill: #28333c } 
		.shp4 { fill: #222b33 } 
		.shp5 { fill: #313f4b } 
	</style>
	<g>
			<path class="shp0" d="M10 0L1070 0C1075.52 0 1080 4.48 1080 10L1080 177C1080 182.52 1075.52 187 1070 187L10 187C4.48 187 0 182.52 0 177L0 10C0 4.48 4.48 0 10 0Z" />
			<path class="shp1" d="M700 207L1010 29L932 82L966 64L880 121L904 111L840 161L835 167L817 182L911 129L831 209L761 208L858 137L754 207L700 207Z" />
			<path class="shp2" d="M14 207L180 53L-12 123L220 -9L170 -11L-8 79L-34 197L14 207Z" />
			<path class="shp2" d="M236.44 518L708.3 80.02L162.54 279.1L822 -96.31L679.87 -102L173.91 153.96L100 489.56L236.44 518Z" />
			<path class="shp1" d="M1002 73L1040 45L1080 -19L1076 55L1002 73Z" />
			<path class="shp3" d="M988 191L1074 143L1014 199L988 191Z" />
			<path class="shp2" d="M879.51 -57L757.18 60.33L730 119L952 -20.9L879.51 -57Z" />
			<path class="shp1" d="M-28 47L130 -21L8 -11L-28 47Z" />
			<path class="shp1" d="M713.9 -33.3L610.34 40.72L705.13 -12.51L674.56 16.59L701.1 10.13L558.51 120.88L725.76 25.69L703.59 53.24L850.95 -27.21L757.53 6.96L815.99 -47.64L721.95 12.83L774.16 -40.86L713.9 -33.3Z" />
			<path class="shp4" d="M2 188.97L279.03 49.29L239.1 141.62L464.57 65.31L562.16 28.15L641.52 -1.8L701 -3L585.23 58.91L522.41 102.23L510.56 131.1L367.82 172.45L339.4 190L2 188.97Z" />
			<path class="shp1" d="M182 207L267 171L284 170L321 153L282 186L182 207Z" />
			<path class="shp5" d="M164.78 -42.1C158.85 -41.22 80.82 15.76 80.82 15.76L124.36 7.28L166.64 -28.6C166.64 -28.6 170.21 -42.91 164.78 -42.1Z" />
	</g>
</svg>