<svg xmlns="http://www.w3.org/2000/svg" width="200.125" height="67.56" viewBox="0 0 200.125 67.56">
  <defs>
    <style>
      .cls-1 {
        fill: #fff;
        fill-rule: evenodd;
      }
    </style>
  </defs>
  <path id="bonus_heading" class="cls-1" d="M30.719,1147.89v-5.12l11.612-2.18v-5.08l-16.917,3.19v26.91l10.3-1.94a11.106,11.106,0,0,0,6.421-3.53,9.5,9.5,0,0,0,2.5-6.53,6.478,6.478,0,0,0-2.5-5.55,7.9,7.9,0,0,0-6.421-1.11Zm0,11.76v-6.8l5-.94a3.417,3.417,0,0,1,2.615.39,2.559,2.559,0,0,1,1.038,2.3,3.823,3.823,0,0,1-1.038,2.72,4.711,4.711,0,0,1-2.615,1.39Zm31.388-17.9c-1.487-1.59-3.576-2.14-6.267-1.63a10.885,10.885,0,0,0-6.594,4.18,12.117,12.117,0,0,0-2.749,7.73,8.453,8.453,0,0,0,2.749,6.69,7.388,7.388,0,0,0,6.594,1.7,9.406,9.406,0,0,0,6.267-3.99v2.27l4.96-.93v-19.23l-4.96.94v2.27Zm-10.65,9.35a6.486,6.486,0,0,1,5.306-6.42,4.475,4.475,0,0,1,3.826.79,4.4,4.4,0,0,1,1.519,3.62,6.308,6.308,0,0,1-1.519,4.19,6.433,6.433,0,0,1-3.826,2.24A4.183,4.183,0,0,1,51.457,1151.1Zm23.314-11.74v-2.27l-4.96.94v26.91l4.96-.93v-9.96q2.191,2.4,6.229,1.63a10.872,10.872,0,0,0,6.632-4.19,12.093,12.093,0,0,0,2.749-7.72,8.44,8.44,0,0,0-2.749-6.69,7.446,7.446,0,0,0-6.632-1.7,9.325,9.325,0,0,0-6.229,3.98h0Zm0,7.35a6.486,6.486,0,0,1,5.306-6.42,4.444,4.444,0,0,1,3.826.8,4.368,4.368,0,0,1,1.519,3.61,6.308,6.308,0,0,1-1.519,4.19,6.433,6.433,0,0,1-3.826,2.24A4.183,4.183,0,0,1,74.771,1146.71Zm31.965-13.36q-2.231-2.4-6.267-1.63a10.884,10.884,0,0,0-6.594,4.18,12.116,12.116,0,0,0-2.749,7.73,8.467,8.467,0,0,0,2.749,6.69,7.388,7.388,0,0,0,6.594,1.7,9.442,9.442,0,0,0,6.267-3.99v2.27l4.96-.93v-19.23l-4.96.94v2.27Zm-10.651,9.34a6.507,6.507,0,0,1,5.306-6.42,4.478,4.478,0,0,1,3.826.8,4.39,4.39,0,0,1,1.519,3.62,6.328,6.328,0,0,1-1.519,4.19,6.434,6.434,0,0,1-3.826,2.24A4.194,4.194,0,0,1,96.085,1142.69Zm34.484,1.12a10.281,10.281,0,0,0,2.672-7,6.643,6.643,0,0,0-2.5-5.7,7.009,7.009,0,0,0-5.691-1.25,9.45,9.45,0,0,0-5.767,3.28,7.151,7.151,0,0,1,1.615-2.61,16.105,16.105,0,0,1,3.576-2.6,29.852,29.852,0,0,0,5.248-3.62,7.4,7.4,0,0,0,2.249-4.06l-4.075-1.58a6.809,6.809,0,0,1-.616,1.39,10.642,10.642,0,0,1-.711,1.07,6.44,6.44,0,0,1-1.1,1.04c-0.513.4-.916,0.71-1.211,0.92s-0.84.57-1.634,1.09-1.41.93-1.845,1.21q-4.422,3.03-5.883,5.98a17.791,17.791,0,0,0-1.461,7.86,8.609,8.609,0,0,0,2.787,6.9q2.788,2.4,7.325,1.54A11.943,11.943,0,0,0,130.569,1143.81Zm-11.939-4.4a4.735,4.735,0,0,1,1.481-3.47,6.332,6.332,0,0,1,3.364-1.82,4.155,4.155,0,0,1,3.46.63,3.556,3.556,0,0,1,1.346,3,5.089,5.089,0,0,1-1.346,3.48,5.847,5.847,0,0,1-3.422,1.91,4.25,4.25,0,0,1-3.479-.65,3.586,3.586,0,0,1-1.4-3.08h0Zm32.734-14.47q-2.229-2.385-6.267-1.62a10.843,10.843,0,0,0-6.594,4.18,12.116,12.116,0,0,0-2.749,7.73,8.466,8.466,0,0,0,2.749,6.69,7.418,7.418,0,0,0,6.594,1.7,9.438,9.438,0,0,0,6.267-3.99v2.27l4.96-.93v-19.23l-4.96.93v2.27Zm-10.65,9.35a6.508,6.508,0,0,1,5.306-6.42,4.478,4.478,0,0,1,3.826.8,4.389,4.389,0,0,1,1.518,3.62,6.327,6.327,0,0,1-1.518,4.19,6.419,6.419,0,0,1-3.826,2.23A4.184,4.184,0,0,1,140.714,1134.29Zm30.965-8.17-7.651,1.44v-7.27l-4.96.93v19.23l4.96-.93v-7.31l7.651-1.44v7.3l4.96-.93v-19.22l-4.96.93v7.27ZM95.7,1181.38a10.279,10.279,0,0,0,2.672-7,6.643,6.643,0,0,0-2.5-5.7,6.971,6.971,0,0,0-5.69-1.25,9.485,9.485,0,0,0-5.767,3.27,7.15,7.15,0,0,1,1.615-2.61,16.456,16.456,0,0,1,3.576-2.59,30.387,30.387,0,0,0,5.248-3.62,7.4,7.4,0,0,0,2.249-4.06l-4.076-1.58a6.8,6.8,0,0,1-.615,1.39,10.849,10.849,0,0,1-.711,1.07,6.1,6.1,0,0,1-1.1,1.03c-0.513.41-.917,0.72-1.211,0.92s-0.84.58-1.634,1.1-1.41.93-1.846,1.21q-4.422,3.03-5.883,5.97a17.876,17.876,0,0,0-1.461,7.87,8.607,8.607,0,0,0,2.787,6.9q2.787,2.4,7.325,1.54A11.941,11.941,0,0,0,95.7,1181.38Zm-11.938-4.4a4.734,4.734,0,0,1,1.48-3.47,6.419,6.419,0,0,1,3.364-1.83,4.193,4.193,0,0,1,3.46.64,3.556,3.556,0,0,1,1.346,3,5.124,5.124,0,0,1-1.346,3.48,5.905,5.905,0,0,1-3.422,1.91,4.251,4.251,0,0,1-3.48-.65,3.6,3.6,0,0,1-1.4-3.08h0Zm37.463-8.02a8.068,8.068,0,0,0-2.96-6.65,8.5,8.5,0,0,0-7.229-1.58,12.172,12.172,0,0,0-7.209,4.3,11.769,11.769,0,0,0-2.941,7.76,8.1,8.1,0,0,0,2.941,6.66,8.412,8.412,0,0,0,7.209,1.58,12.208,12.208,0,0,0,7.229-4.3A11.735,11.735,0,0,0,121.221,1168.96Zm-15.379,2.9a6.418,6.418,0,0,1,5.19-6.28,4.361,4.361,0,0,1,3.73.79,4.3,4.3,0,0,1,1.5,3.53,6.174,6.174,0,0,1-1.5,4.09,6.255,6.255,0,0,1-3.73,2.2A4.121,4.121,0,0,1,105.842,1171.86Zm30.965-8.17-7.651,1.44v-7.27l-4.96.93v19.23l4.96-.94v-7.3l7.651-1.44v7.3l4.96-.93v-19.23l-4.96.94v7.27Zm17.97,2.26-5.152-11.94-5.268.99,7.767,17.53a6.844,6.844,0,0,1-1.827,2.92,6.245,6.245,0,0,1-3.095,1.31v4.62q7.228-.945,10.151-9.61l7-20.54-5.306,1Zm23.849,0.99a12.677,12.677,0,0,0,3.576-4.3l-4.306-1.65a5.561,5.561,0,0,1-1.75,2.19,6.227,6.227,0,0,1-2.672,1.18,4.289,4.289,0,0,1-3.691-.79,4.237,4.237,0,0,1-1.461-3.47,6.342,6.342,0,0,1,5.152-6.24,4.621,4.621,0,0,1,2.634.2,3.3,3.3,0,0,1,1.749,1.55l4.268-3.3a6.849,6.849,0,0,0-3.5-2.96,9.187,9.187,0,0,0-5.114-.38,12.123,12.123,0,0,0-7.247,4.29,11.787,11.787,0,0,0-2.9,7.77,8.14,8.14,0,0,0,2.9,6.68,8.4,8.4,0,0,0,7.247,1.56A11.719,11.719,0,0,0,178.626,1166.94Zm27.39-13.94a8.066,8.066,0,0,0-2.961-6.65,8.463,8.463,0,0,0-7.228-1.58,12.123,12.123,0,0,0-7.209,4.3,11.77,11.77,0,0,0-2.942,7.76,8.109,8.109,0,0,0,2.942,6.66,8.412,8.412,0,0,0,7.209,1.58,12.255,12.255,0,0,0,7.228-4.3A11.731,11.731,0,0,0,206.016,1153Zm-15.38,2.9a6.421,6.421,0,0,1,5.191-6.29,4.362,4.362,0,0,1,3.729.8,4.275,4.275,0,0,1,1.5,3.52,6.151,6.151,0,0,1-1.5,4.09,6.267,6.267,0,0,1-3.729,2.21A4.133,4.133,0,0,1,190.636,1155.9Zm34.08-10.61a4.124,4.124,0,0,0-1.673-3.61,6.05,6.05,0,0,0-4.71-.61l-9.343,1.76v19.22l10.112-1.9a8.31,8.31,0,0,0,4.749-2.41,6.135,6.135,0,0,0,1.672-4.26,3.618,3.618,0,0,0-2.691-3.88,5.7,5.7,0,0,0,1.884-4.31h0Zm-4.729,1.27q0,1.74-2.115,2.13l-4.229.8v-3.46l4.229-.8C219.281,1144.97,219.987,1145.41,219.987,1146.56Zm-6.344,10.43v-3.58l4.883-.92a2.2,2.2,0,0,1,1.576.17,1.246,1.246,0,0,1,.577,1.16q0,1.845-2.153,2.25Z" transform="translate(-25.406 -1117.91)" />
</svg>
