<svg xmlns="http://www.w3.org/2000/svg" viewBox="0 0 1209 388" id="pieces" color="#dcb84b">
  <style>
    .dark {
      opacity: 0.58;
      fill: #28333d
    }
  </style>
  <g>
    <path class="dark"
      d="M0 387.1C3.72 385.37 931.95 21.56 927.15 23.8L707.1 174.56L1209 52.23L824.54 194.33L1006.26 168.38L606.97 331.5L734.03 264.01L574.83 301.84L714.52 222.75C714.52 222.75 651.38 241.72 572.22 265.51C560.8 268.94 549.06 272.47 537.12 276.05C533.13 277.25 529.11 278.46 525.08 279.67C507.44 284.97 489.49 290.36 471.67 295.71C363.96 328.08 261.14 358.97 261.14 358.97L356.43 292.14L0 387.1Z" />
    <path class="dark"
      d="M1003.56 139.64L1157.31 88.39L1113.7 117.01L1089.98 120.7L1055.93 132.51L1003.56 139.64Z" />
    <path class="dark"
      d="M352.32 230.17L482.12 178.27L417.83 178.27L401.76 198.04L389.4 202.98L352.32 230.17Z" />
  </g>
  <g>
    <path fill="currentColor"
      d="M478.19 57.56L430.49 76.23L440.8 82.7L372.08 118.96L466.14 86.54L456.35 76.2L487.56 64.14L510.56 47.28L478.19 57.56Z" />
    <path fill="currentColor" d="M868.48 130L849.89 145.18L885.93 131.02L868.48 130Z" />
    <path fill="currentColor"
      d="M867.35 143.67C867.35 143.67 872.01 141.8 877.65 139.54C882.1 137.76 887.16 135.74 891.03 134.19C894.69 132.72 950.63 116.48 950.63 116.48L892.57 143.37L867.35 143.67Z" />
    <path fill="currentColor" d="M843.1 262.29L799.17 272.71L768.9 290.72L811.3 283.01L843.1 262.29Z" />
    <path fill="currentColor"
      d="M219.6 290.37C219.6 290.37 224.51 289.19 231.65 287.47C250.6 282.92 285.24 274.6 285.24 274.6L320.62 250.29L288.96 257.42L273.06 265.97" />
    <path fill="currentColor" d="M306.58 246.23L322.65 241.29L332.54 230.17L306.58 246.23Z" />
    <path fill="currentColor" d="M412.5 309.35L358.09 324.41L384.24 326.45L412.5 309.35Z" />
    <path fill="currentColor"
      d="M878.22 77.64L914.12 58.92C914.12 58.92 920.13 58.39 926.37 57.85C933.41 57.23 940.73 56.6 940.73 56.6L1010.44 23.35L948.51 63.98L933.66 66.57L878.22 77.64Z" />
  </g>
</svg>
