<svg width="38" height="38" viewBox="0 0 38 38" fill="none" xmlns="http://www.w3.org/2000/svg">
  <circle cx="19" cy="19" r="19" fill="color(Dark)"/>
  <path d="M26 25V23.3333C26 22.4493 25.6576 21.6014 25.0481 20.9763C24.4386 20.3512 23.612 20 22.75 20H16.25C15.388 20 14.5614 20.3512 13.9519 20.9763C13.3424 21.6014 13 22.4493 13 23.3333V25M22.75 13.3333C22.75 15.1743 21.2949 16.6667 19.5 16.6667C17.7051 16.6667 16.25 15.1743 16.25 13.3333C16.25 11.4924 17.7051 10 19.5 10C21.2949 10 22.75 11.4924 22.75 13.3333Z" stroke="#455865" stroke-width="1.6" stroke-linecap="round" stroke-linejoin="round"/>
</svg>